<?xml version="1.0" encoding="utf-8"?>
<!-- Generator: Adobe Illustrator 21.0.2, SVG Export Plug-In . SVG Version: 6.00 Build 0)  -->
<svg version="1.1" id="Nexus_Advanced_Technologies_Logo"
	 xmlns="http://www.w3.org/2000/svg" xmlns:xlink="http://www.w3.org/1999/xlink" x="0px" y="0px" viewBox="0 0 59 64"
	 style="enable-background:new 0 0 59 64;" xml:space="preserve">
<style type="text/css">
	.st0{fill:#FE7D19;}
	.st1{fill:#020203;}
</style>
<g>
	<g>
		<path class="st0" d="M51.6,59.8L51.6,59.8c-3.3,2.5-7.9,1.8-10.4-1.4L7.4,13.9C5,10.6,5.6,6,8.8,3.5l0,0c3.3-2.5,7.9-1.8,10.4,1.4
			L53,49.4C55.5,52.6,54.8,57.3,51.6,59.8z"/>
		<path class="st0" d="M4.5,38.1c0-4,3.2-7.2,7.2-7.2c4,0,7.2,3.2,7.2,7.2c0,4-3.2,7.2-7.2,7.2C7.7,45.3,4.5,42.1,4.5,38.1L4.5,38.1
			z"/>
		<polygon class="st1" points="40.3,2.2 53.5,2.2 53.5,45.5 40.3,28 40.3,2.8 		"/>
		<path class="st0" d="M4.5,54.8c0-4,3.2-7.2,7.2-7.2c4,0,7.2,3.2,7.2,7.2c0,4-3.2,7.2-7.2,7.2C7.7,62,4.5,58.8,4.5,54.8L4.5,54.8z"
			/>
	</g>
</g>
</svg>
