<?xml version="1.0" encoding="utf-8"?>
<!-- Generator: Adobe Illustrator 21.0.2, SVG Export Plug-In . SVG Version: 6.00 Build 0)  -->
<svg version="1.1" id="Nexus_Advanced_Technologies_Logo"
	 xmlns="http://www.w3.org/2000/svg" xmlns:xlink="http://www.w3.org/1999/xlink" x="0px" y="0px" viewBox="0 0 59 64"
	 style="enable-background:new 0 0 59 64;" xml:space="preserve">
<style type="text/css">
	.st0{fill:#FE7D19;}
	.st1{fill:#020203;}
</style>
<g>
	<g>
		<path class="st0" d="M49.5,57.2L49.5,57.2c-3,2.3-7.2,1.6-9.4-1.3L9.5,15.6c-2.2-3-1.6-7.2,1.3-9.4l0,0c3-2.3,7.2-1.6,9.4,1.3
			l30.6,40.3C53.1,50.7,52.4,54.9,49.5,57.2z"/>
		<path class="st0" d="M6.8,37.5c0-3.6,2.9-6.5,6.5-6.5s6.5,2.9,6.5,6.5c0,3.6-2.9,6.5-6.5,6.5S6.8,41.2,6.8,37.5L6.8,37.5z"/>
		<polygon class="st1" points="39.3,5 51.3,5 51.3,44.2 39.3,28.4 39.3,5.5 		"/>
		<path class="st0" d="M6.8,52.7c0-3.6,2.9-6.5,6.5-6.5s6.5,2.9,6.5,6.5c0,3.6-2.9,6.5-6.5,6.5S6.8,56.3,6.8,52.7L6.8,52.7z"/>
	</g>
</g>
</svg>
