<?xml version="1.0" standalone="no"?>
<!DOCTYPE svg PUBLIC "-//W3C//DTD SVG 20010904//EN"
 "http://www.w3.org/TR/2001/REC-SVG-20010904/DTD/svg10.dtd">
<svg version="1.0" xmlns="http://www.w3.org/2000/svg"
 width="128.000000pt" height="128.000000pt" viewBox="0 0 128.000000 128.000000"
 preserveAspectRatio="xMidYMid meet">
<metadata>
Created by potrace 1.11, written by Peter Selinger 2001-2013
</metadata>
<g transform="translate(0.000000,128.000000) scale(0.100000,-0.100000)"
fill="#000000" stroke="none">
<path d="M245 1221 c-46 -28 -64 -53 -73 -103 -6 -32 -5 -55 4 -76 10 -25 115
-175 134 -192 3 -3 127 -165 274 -360 148 -195 283 -370 300 -388 59 -63 152
-65 212 -5 47 47 59 124 26 178 -10 17 -108 147 -217 290 -295 388 -321 421
-403 531 -42 56 -91 111 -109 123 -41 26 -107 28 -148 2z"/>
<path d="M859 1232 c-1 -4 -2 -121 -3 -261 l-1 -254 65 -86 c36 -47 96 -126
133 -175 l67 -89 0 435 0 435 -130 0 c-71 1 -131 -2 -131 -5z"/>
<path d="M255 660 c-62 -14 -104 -58 -112 -120 -11 -79 27 -139 101 -160 85
-23 169 30 182 116 15 99 -74 185 -171 164z"/>
<path d="M220 312 c-136 -68 -86 -272 68 -272 76 0 135 60 138 140 5 109 -108
182 -206 132z"/>
</g>
</svg>
